<?xml version="1.0" encoding="UTF-8"?>
<svg width="14px" height="14px" viewBox="0 0 14 14" version="1.1" xmlns="http://www.w3.org/2000/svg" xmlns:xlink="http://www.w3.org/1999/xlink">
    <!-- Generator: Sketch 51.1 (57501) - http://www.bohemiancoding.com/sketch -->
    <title>上传提示</title>
    <desc>Created with Sketch.</desc>
    <defs></defs>
    <g id="上传提示" stroke="none" stroke-width="1" fill="none" fill-rule="evenodd">
        <path d="M7,14 C3.13400675,14 0,10.8659932 0,7 C0,3.13400675 3.13400675,0 7,0 C10.8659932,0 14,3.13400675 14,7 C14,10.8659932 10.8659932,14 7,14 Z M7.81005859,3.43847656 L6.16943359,3.43847656 L6.34887695,8.96020508 L7.62036133,8.96020508 L7.81005859,3.43847656 Z M6.98974609,9.80102539 C6.72997917,9.80102539 6.50952239,9.88476479 6.32836914,10.0522461 C6.14721589,10.2197274 6.05664062,10.4230945 6.05664062,10.6623535 C6.05664062,10.8947766 6.14721589,11.0947257 6.32836914,11.262207 C6.50952239,11.4296883 6.72997917,11.5134277 6.98974609,11.5134277 C7.24951302,11.5134277 7.47167876,11.4296883 7.65625,11.262207 C7.84082124,11.0947257 7.93310547,10.8947766 7.93310547,10.6623535 C7.93310547,10.4230945 7.84082124,10.2197274 7.65625,10.0522461 C7.47167876,9.88476479 7.24951302,9.80102539 6.98974609,9.80102539 Z" id="Combined-Shape-Copy-3" fill="#CC5858"></path>
    </g>
</svg>