<?xml version="1.0" standalone="no"?><!DOCTYPE svg PUBLIC "-//W3C//DTD SVG 1.1//EN" "http://www.w3.org/Graphics/SVG/1.1/DTD/svg11.dtd"><svg t="1546957118881" class="icon" style="" viewBox="0 0 1024 1024" version="1.1" xmlns="http://www.w3.org/2000/svg" p-id="12844" xmlns:xlink="http://www.w3.org/1999/xlink" width="200" height="200"><defs><style type="text/css"></style></defs><path d="M113.496293 624.085088v-70.676046a847.992562 847.992562 0 0 1 5.999664-100.662369q0.935948-7.85956 1.96789-15.707122c0.071996-0.515971 0.52797-3.93578 0.323982-2.399865s0.263985-1.895894 0.311983-2.279873l0.88795-6.371643q1.391922-9.83945 2.939835-19.642902c2.85584-17.998993 5.747678-35.997986 9.359477-53.936982a1042.813664 1042.813664 0 0 1 47.253356-162.662901 1258.837579 1258.837579 0 0 1 70.052082-152.211485q4.895726-9.071493 9.911445-18.070989h-20.686843c4.871727 8.195542 10.151432 16.151096 14.3032 24.754615l20.686843-12.203317c-4.943723-6.767621-10.475414-14.735176-13.091268-21.886776l-21.934773 9.251483c27.310472 47.433347 52.72505 96.318612 72.22396 147.29176q8.39953 21.934773 15.263146 44.397517a12.33531 12.33531 0 0 0 11.567353 8.807507q127.852848 3.39581 255.765692 1.547913 31.834219-0.467974 63.668439-1.199933c5.483693-0.131993 11.999329 0.635964 17.15904-1.583911 6.923613-2.999832 8.639517-9.599463 10.90739-16.079101 3.155823-9.023495 5.459695-18.310976 8.267537-27.442464 1.343925-4.367756 2.783844-8.711513 4.499748-12.947276 0.155991-0.395978 0.335981-0.791956 0.491973-1.199933 0.995944-2.591855-1.25993 2.951835-0.17999 0.407977q2.519859-5.879671 5.075716-11.735343 7.715568-17.591016 15.779117-35.014042c5.495693-11.831338 11.003384-23.710674 17.423026-35.074037 11.507356-20.398859 22.126762-41.253692 33.790109-61.544558h-20.746839c4.931724 8.255538 10.451415 16.175095 14.327198 25.006602l18.850946-14.603184c1.031942 1.331925-0.587967-0.827954-0.755958-1.05594q-0.971946-1.331925-1.907893-2.68785a111.851743 111.851743 0 0 1-3.707793-5.759678 43.197583 43.197583 0 0 1-4.871727-10.211429l-21.934773 9.251483c0.503972 0.88795 1.943891 3.407809 2.015887 3.599798l21.934773-9.251482a20.122874 20.122874 0 0 1-1.631909-2.531858c-0.959946-1.799899 0.71996 2.291872-0.383978-1.067941l-21.934773 9.251483c14.951164 29.290361 32.014209 57.476785 46.449401 87.031131a333.677334 333.677334 0 0 1 18.310976 44.397516 83.395335 83.395335 0 0 0 4.799732 12.551298q2.915837 5.71168 5.543689 11.579353c3.251818 7.199597 6.167655 14.735176 8.963499 22.366748 7.991553 21.80278 15.743119 43.881545 21.922774 66.272293 4.799731 17.255035 8.987497 34.666061 13.067269 52.089086 10.36742 44.313521 19.6669 88.903027 27.598456 133.72052q2.747846 15.599127 5.195709 31.198254 1.091939 7.055605 2.087883 14.13521c0.155991 1.091939 0.299983 2.183878 0.455975 3.275816-0.491972-3.491805 0 0 0.107994 0.815955q0.455974 3.467806 0.875951 6.947611a287.851897 287.851897 0 0 1 2.399865 34.234085v88.315059a11.999329 11.999329 0 0 0 23.998658 0v-82.075408c0-29.254363-4.439752-58.196744-9.227484-86.995134-7.49958-45.129475-16.715065-89.994966-26.830499-134.620469-4.331758-19.102931-8.855505-38.169865-13.823227-57.128804-4.799731-18.442968-10.871392-36.357966-16.96705-54.428955-5.639685-16.79906-11.579352-33.394132-18.790949-49.533229q-2.459862-5.519691-5.171711-10.919389a82.867364 82.867364 0 0 1-3.947779-10.943388c-2.807843-8.39953-5.999664-16.595072-9.491469-24.730617-12.815283-30.274306-29.386356-58.688717-45.05748-87.523103-3.983777-7.33159-7.907558-14.711177-11.699345-22.138762-6.143656-11.999329-26.206534-3.707793-21.934773 9.251483a32.686171 32.686171 0 0 0 4.427752 9.323478c3.599799 4.799731 9.11949 7.487581 14.987162 4.907725 5.063717-2.231875 9.059493-8.459527 6.947611-14.159207a63.596442 63.596442 0 0 0-4.427752-9.323479c-6.61163-11.663348-26.086541-3.899782-21.934773 9.251483 3.599799 11.315367 10.211429 21.022824 17.411026 30.310304 3.599799 4.65574 11.579352 4.259762 15.755119 0.935948 5.015719-3.995776 5.567689-9.83945 3.095826-15.479134-3.887783-8.831506-9.395474-16.79906-14.327198-25.006602-4.583744-7.667571-16.187094-7.883559-20.722841 0-10.055437 17.495021-19.198926 35.446017-29.026376 53.085031-5.771677 10.403418-11.375364 20.794837-16.523076 31.522236q-14.543186 30.358302-27.598456 61.424564a191.785271 191.785271 0 0 0-7.199597 20.398859c-1.499916 5.075716-2.891838 10.175431-4.415753 15.239148-0.71996 2.399866-1.475917 4.799731-2.279873 7.199597q-0.599966 1.775901-1.199932 3.527802-0.383979 1.055941-0.791956 2.099883-0.947947 2.50786-0.263985 0.551969l4.307759-4.307759 2.399865-0.671962-3.275816 0.083995-3.275817 0.083995-8.183542 0.203989-16.343086 0.371979q-16.319087 0.347981-32.638174 0.611966-31.750224 0.515971-63.500448 0.70796-64.280404 0.383979-128.548809-0.575968-36.753944-0.551969-73.495888-1.523914l11.567353 8.807507c-16.523076-53.996979-40.017761-105.810081-66.620273-155.595296q-11.25537-21.070821-23.218702-41.757664a11.999329 11.999329 0 0 0-14.987161-4.907725c-5.087715 2.231875-9.035495 8.39953-6.947612 14.159208 3.707793 10.115434 9.191486 18.958939 15.515133 27.598456 3.815787 5.231707 10.415417 7.811563 16.415081 4.307759s7.127601-10.559409 4.307759-16.415082c-4.151768-8.603519-9.431472-16.559074-14.3032-24.754615-4.523747-7.607574-16.283089-7.967554-20.72284 0a1350.332461 1350.332461 0 0 0-74.107855 154.791341A1068.924203 1068.924203 0 0 0 116.928101 324.341856c-8.279537 36.693947-14.171207 73.939864-19.114931 111.221778-4.799731 36.213974-8.195542 72.547942-8.195541 109.097897v79.483553a11.999329 11.999329 0 0 0 23.998657 0z" fill="#05b5ab" p-id="12845"></path><path d="M176.984741 995.560307a9.599463 9.599463 0 0 1-0.083995 1.667907c-0.287984 0.131993 0.88795-3.119825 0-0.791956a8.507524 8.507524 0 0 0-0.491973 1.523915c0-0.467974 1.331925-2.32787 0.203989-0.71996a5.039718 5.039718 0 0 0-0.623965 0.995944c-0.419977 1.319926 1.559913-1.403921 0.431976-0.575968a5.999664 5.999664 0 0 0-1.103938 1.103939c-0.671962 0.911949 2.231875-1.199933 0.251985-0.215988a12.383307 12.383307 0 0 1-1.367923 0.767957c-0.071996-0.107994 2.399866-0.779956 1.031942-0.443975a14.027215 14.027215 0 0 0-1.535914 0.455974c-1.487917 0.575968 2.399866 0 0.767957 0H73.970504c-14.855169 0-29.746336 0.263985-44.601505 0h-0.203989-1.199932c-1.331925 0 1.091939 0.059997 1.199932 0.143992a11.999329 11.999329 0 0 0-1.559912-0.407977c-2.291872-0.551969 1.871895 1.271929 0 0a5.027719 5.027719 0 0 0-1.007944-0.623965c-1.319926-0.419977 1.415921 1.559913 0.575968 0.431976a5.999664 5.999664 0 0 0-1.103938-1.103939c-1.103938-0.815954 0.911949 0.815954 0.647963 0.89995a9.695458 9.695458 0 0 1-0.839953-1.331925c-1.379923-1.96789 0.491972 0.731959 0.203989 0.719959a10.799396 10.799396 0 0 1-0.491972-1.523914c-0.70796-2.075884 0 1.811899 0 0.371979v-2.399866V645.50389v-2.075884c0-2.399866 0 0.791956-0.107994 0.743958s0.443975-1.679906 0.407977-1.559913c0.491972-1.847897-0.071996 0.827954-0.311983 0.659963a11.363364 11.363364 0 0 1 0.575968-1.031942c1.727903-2.399866-1.511915 1.475917 0.52797-0.647964a9.011496 9.011496 0 0 1 0.851953-0.803955q-1.979889 1.451919-0.863952 0.695961 0.479973-0.335981 1.007944-0.623965c1.031942-0.731959 1.055941 0.215988-0.71996 0.203989a5.351701 5.351701 0 0 0 1.139936-0.371979c2.807843-0.827954-2.14788-0.095995 0.839953-0.203989h0.599967c4.715736-0.083995 9.443472 0 14.147208 0h130.348708q1.631909 0.143992 0 0s-1.343925-0.35998 0 0.095995a10.247427 10.247427 0 0 1 1.523915 0.491972q-2.267873-1.007944-1.06794-0.383978 0.347981 0.17999 0.683962 0.383978c2.399866 1.715904-1.415921-1.547913 0.647963 0.527971 0.347981 0.347981 1.655907 1.343925 0.347981 0.263985-1.031942-0.851952-0.299983-0.479973 0 0 0-0.107994 0.815954 1.343925 0.767957 1.367923-0.371979 0.263985-0.731959-2.543858-0.311983-0.659963a12.203317 12.203317 0 0 0 0.407978 1.559913c-0.491972-0.395978-0.17999-2.771845-0.095995-0.323982 0.059997 1.823898 0 3.671795 0 5.495693v346.25263c0 6.275649 5.519691 12.287313 11.999329 11.999329a12.203317 12.203317 0 0 0 11.999328-11.999329V659.123128c0-12.251315 1.475917-25.366581-8.39953-34.798054a28.798389 28.798389 0 0 0-20.002881-7.85956H39.088455c-5.615686 0-11.747343-0.503972-17.219036 0.959946C8.97014 620.857268 1.338567 632.820599 1.338567 645.707878v325.937767c0 7.895558-0.131993 15.803116 0 23.698674a28.270419 28.270419 0 0 0 28.510405 27.982435h141.364092a35.626007 35.626007 0 0 0 9.239483-0.959947c12.167319-3.239819 20.20687-14.47119 20.530852-26.830499 0.167991-6.275649-5.639685-12.287313-11.999329-11.999328a12.239315 12.239315 0 0 0-11.999329 12.023327zM998.650776 996.196271a9.599463 9.599463 0 0 1-0.083995 1.667907c-0.287984 0.131993 0.88795-3.119825 0-0.791956a8.507524 8.507524 0 0 0-0.491973 1.523915c0-0.467974 1.331925-2.32787 0.203989-0.71996a5.039718 5.039718 0 0 0-0.623965 0.995945c-0.419977 1.319926 1.559913-1.415921 0.431976-0.575968a5.999664 5.999664 0 0 0-1.103939 1.103938c-0.671962 0.911949 2.231875-1.199933 0.251986-0.215988a12.407306 12.407306 0 0 1-1.367923 0.767957c-0.071996-0.107994 2.399866-0.779956 1.031942-0.443975a14.039215 14.039215 0 0 0-1.535914 0.455975c-1.487917 0.575968 2.399866 0 0.767957 0h-100.494378c-14.855169 0-29.746336 0.263985-44.601505 0H850.831045h-1.199933c-1.331925 0 1.091939 0.059997 1.199933 0.143992a11.999329 11.999329 0 0 0-1.559912-0.407978c-2.291872-0.551969 1.871895 1.271929 0-0.059996a5.039718 5.039718 0 0 0-0.995945-0.623965c-1.319926-0.419977 1.403921 1.559913 0.575968 0.431975a5.999664 5.999664 0 0 0-1.103938-1.103938c-1.103938-0.815954 0.911949 0.815954 0.647964 0.89995a9.695458 9.695458 0 0 1-0.839953-1.331926c-1.379923-1.96789 0.491972 0.731959 0.203988 0.71996a10.799396 10.799396 0 0 1-0.491972-1.523915c-0.70796-2.075884 0 1.811899 0 0.37198v-2.399866V646.151853v-2.075884c0-2.399866 0 0.791956-0.107994 0.743959s0.443975-1.679906 0.407977-1.559913c0.491972-1.847897-0.071996 0.827954-0.311983 0.659963a11.363364 11.363364 0 0 1 0.575968-1.031942c1.727903-2.399866-1.511915 1.475917 0.527971-0.647964a9.023495 9.023495 0 0 1 0.851952-0.803955q-1.979889 1.451919-0.863952 0.695961 0.479973-0.335981 0.995945-0.623965c1.031942-0.731959 1.055941 0.215988-0.71996 0.203989a5.351701 5.351701 0 0 0 1.139936-0.371979c2.807843-0.827954-2.14788-0.095995 0.839953-0.203989h0.599967c4.715736-0.083995 9.443472 0 14.147208 0h130.348708q1.631909 0.143992 0 0s-1.355924-0.35998 0 0.095995a10.271425 10.271425 0 0 1 1.523915 0.491972q-2.267873-1.007944-1.06794-0.383978 0.347981 0.17999 0.683961 0.383978c2.399866 1.715904-1.415921-1.547913 0.647964 0.527971 0.347981 0.347981 1.655907 1.331925 0.347981 0.263985-1.031942-0.851952-0.299983-0.491972 0 0 0-0.107994 0.815954 1.343925 0.767957 1.367923-0.371979 0.263985-0.731959-2.543858-0.311983-0.659963a12.203317 12.203317 0 0 0 0.407977 1.559913c-0.491972-0.395978-0.17999-2.771845-0.095994-0.323982 0.059997 1.823898 0 3.671795 0 5.495693v346.24063c0 6.275649 5.519691 12.287313 11.999328 11.999329a12.203317 12.203317 0 0 0 11.999329-11.999329V659.783091c0-12.251315 1.475917-25.366581-8.39953-34.798054a28.798389 28.798389 0 0 0-20.002881-7.85956H860.75449c-5.615686 0-11.747343-0.503972-17.219037 0.959946-12.887279 3.431808-20.530851 15.395139-20.530851 28.282418V972.305608c0 7.895558-0.131993 15.803116 0 23.698674a28.282418 28.282418 0 0 0 28.570402 27.982435H992.879099a35.602008 35.602008 0 0 0 9.239483-0.959947c12.167319-3.239819 20.20687-14.47119 20.530852-26.830499 0.167991-6.275649-5.639685-12.287313-11.999329-11.999328a12.239315 12.239315 0 0 0-11.999329 11.999328z" fill="#05b5ab" p-id="12846"></path><path d="M417.199303 899.33769H188.648089c-6.275649 0-12.287313 5.519691-11.999329 11.999329a12.203317 12.203317 0 0 0 11.999329 11.999328h198.94887c9.731456 0 19.498909 0.263985 29.230365 0h0.371979c6.275649 0 12.287313-5.519691 11.999329-11.999328a12.203317 12.203317 0 0 0-11.999329-11.999329z" fill="#05b5ab" p-id="12847"></path><path d="M588.141741 950.154847a9.599463 9.599463 0 0 1-0.083996 1.667907c-0.227987 0.107994 0.803955-3.119825 0-0.791956-0.131993 0.35998-0.263985 0.767957-0.35998 1.199933-0.371979 1.475917 1.199933-1.823898 0.251986-0.683962a5.999664 5.999664 0 0 0-0.803955 1.355924c-0.53997 1.199933 0.551969-1.055941 0.695961-0.863951a10.799396 10.799396 0 0 1-1.079939 1.127937c-1.283928 1.499916 1.367923-0.515971 0.287984-0.167991a5.027719 5.027719 0 0 0-1.007944 0.623965c-1.60791 1.127937 0.251986-0.239987 0.71996-0.203989a8.543522 8.543522 0 0 0-1.523915 0.491973c-1.091939 0.443975-1.283928-0.395978 0.791956 0a9.275481 9.275481 0 0 0-1.775901 0.083995H435.522278c-1.871895 0 0.467974-0.227987 0.743959 0.107994a12.191318 12.191318 0 0 0-1.559913-0.407977c-1.883895-0.419977 0.923948-0.059997 0.659963 0.311983s-2.819842-2.399866-1.42792-0.755958-0.995944-1.283928-1.055941-1.199933c0.275985-0.383979 1.343925 2.243874 0.479973 0.53997q-0.323982-0.491972-0.587967-1.019943-0.443975-0.863952 0.095995 0.35998l0.287984 0.70796a11.735344 11.735344 0 0 1-0.37198-1.139936 4.595743 4.595743 0 0 0-0.299983-1.199933c0.731959 0.71996 0.107994 2.399866 0.107994 0.743958v-0.839953-0.443975-81.259454-1.655907a6.503636 6.503636 0 0 0 0.071996-1.199933c0.371979 1.907893-0.383979 1.955891 0 0.791955a10.799396 10.799396 0 0 1 0.491973-1.523914c0.287984 0-1.583911 2.68785-0.203989 0.719959a5.039718 5.039718 0 0 0 0.623965-0.995944c0.419977-1.319926-1.559913 1.403921-0.431976 0.575968a5.999664 5.999664 0 0 0 1.103938-1.103938c0.671962-0.911949-2.231875 1.199933-0.251985 0.215988a4.799731 4.799731 0 0 0 1.019942-0.587968c0.947947-1.031942-2.099883 0.611966-0.683961 0.251986 0.371979-0.095995 0.779956-0.227987 1.199933-0.35998 1.895894-0.659963-0.323982 0.095995-0.791956 0a8.519523 8.519523 0 0 0 1.775901-0.083995H585.189906c2.219876 0-1.643908-0.515971-0.347981 0a14.027215 14.027215 0 0 0 1.535914 0.455975c1.307927 0.335981-1.103938-0.335981-1.031942-0.443976a12.203317 12.203317 0 0 1 1.367923 0.767958c1.703905 0.863952-0.935948-0.203989-0.539969-0.479974-0.119993 0.083995 2.879839 2.399866 1.199932 1.055941-1.199933-0.995944-0.17999-0.107994 0.17999 0.395978 0.863952 1.199933 0 1.511915 0-0.383978a5.351701 5.351701 0 0 0 0.37198 1.139936l0.107994 0.383978q0.323982 1.571912 0.095994 0l-0.083995-0.791955a11.999329 11.999329 0 0 1 0.071996 1.199933v83.29934c0 6.275649 5.519691 12.287313 11.999329 11.999328a12.203317 12.203317 0 0 0 11.999328-11.999328V868.751401c0-6.119658-1.319926-12.191318-4.967722-17.243036a28.522404 28.522404 0 0 0-23.134706-11.999328c-15.19115-0.239987-30.406299 0-45.597449 0h-101.730309a28.150425 28.150425 0 0 0-22.234756 10.799396c-6.575632 8.519523-5.90367 18.166984-5.90367 28.174423v71.68399c0.263985 12.395307 8.57952 23.998657 20.92683 26.926494 5.3637 1.271929 11.123378 0.863952 16.583072 0.863952h128.560808c5.555689 0 11.555354 0.467974 16.97905-0.959947 12.179319-3.203821 20.20687-14.48319 20.530852-26.830499 0.167991-6.275649-5.639685-12.287313-11.999329-11.999328a12.239315 12.239315 0 0 0-11.987329 11.987329zM670.937109 463.70206a88.627042 88.627042 0 1 1-157.611183 46.077422l-2.975834 5.18371 1.571912-0.803955-9.023495-5.18371c2.027887 22.798725-4.175766 45.741441-18.454967 63.764433a89.862973 89.862973 0 0 1-54.764937 32.626175 88.651041 88.651041 0 0 1-84.403278-142.46803c2.015887-2.531858 2.471862-5.999664 0-8.483526-2.087883-2.087883-6.455639-2.543858-8.483526 0a102.090289 102.090289 0 0 0-21.034823 81.727428 100.674368 100.674368 0 0 0 106.506042 82.159404 100.542376 100.542376 0 0 0 92.622819-109.325884c-0.407977-4.619742-4.799731-7.367588-9.023496-5.18371a10.247427 10.247427 0 0 0-2.783844 1.739903c-1.763901 1.763901-1.775901 4.163767-1.943891 6.479637a94.134734 94.134734 0 0 0-0.119993 11.831339 103.31422 103.31422 0 0 0 2.879838 19.47491 99.006461 99.006461 0 0 0 15.599128 33.742112 100.614371 100.614371 0 0 0 178.490015-29.84233c9.407474-31.81022 1.955891-66.224295-18.622958-91.998854-2.027887-2.531858-6.371644-2.111882-8.483526 0-2.50786 2.50786-2.027887 5.999664 0 8.483526z" fill="#05b5ab" p-id="12848"></path></svg>