<?xml version="1.0" encoding="UTF-8"?>
<svg width="14px" height="14px" viewBox="0 0 14 14" version="1.1" xmlns="http://www.w3.org/2000/svg" xmlns:xlink="http://www.w3.org/1999/xlink">
    <!-- Generator: Sketch 51.1 (57501) - http://www.bohemiancoding.com/sketch -->
    <title>查看清单</title>
    <desc>Created with Sketch.</desc>
    <defs></defs>
    <g id="查看清单" stroke="none" stroke-width="1" fill="none" fill-rule="evenodd">
        <g id="chakan-4" transform="translate(0.000000, 2.000000)" fill="#B5B5B5" fill-rule="nonzero">
            <path d="M6.99768095,0 C1.99907565,0 0,5 0,5 C0,5 1.99907565,10 6.99768095,10 C11.9962862,10 13.9953619,5 13.9953619,5 C13.9953619,5 11.9944539,0 6.99768095,0 Z M6.99768095,7.99853372 C5.34125163,7.99853372 3.9981513,6.65505864 3.9981513,4.99816715 C3.9981513,3.34127565 5.34125163,1.99780058 6.99768095,1.99780058 C8.65411027,1.99780058 9.9972106,3.34127565 9.9972106,4.99816715 C9.99537827,6.65689149 8.65227794,7.99853372 6.99768095,7.99853372 Z M8.49652961,5 C8.49652961,5.82844575 7.82406328,6.49926687 6.99768095,6.49926687 C6.17129862,6.49926687 5.49699996,5.8266129 5.49699996,5 C5.49699996,4.17155425 6.16946628,3.50073313 6.99584862,3.50073313 C7.82589562,3.49890029 8.49652961,4.17155425 8.49652961,5 Z" id="Shape"></path>
        </g>
    </g>
</svg>